HIERARCHY
ROOT newVegas:Hips
{
	OFFSET 0.000000 96.479958 0.000000
	CHANNELS 6 Xposition Yposition Zposition Xrotation Yrotation Zrotation
	JOINT newVegas:Pelvis
	{
		OFFSET 0.000000 0.000000 0.000000
		CHANNELS 3 Xrotation Yrotation Zrotation
		JOINT newVegas:LeftUpLeg
		{
			OFFSET 18.735201 -5.666702 -4.541200
			CHANNELS 3 Xrotation Yrotation Zrotation
			JOINT newVegas:LeftLeg
			{
				OFFSET -0.021200 -31.938179 0.493100
				CHANNELS 3 Xrotation Yrotation Zrotation
				JOINT newVegas:LeftFoot
				{
					OFFSET 0.021200 -31.938179 -4.336299
					CHANNELS 3 Xrotation Yrotation Zrotation
					JOINT newVegas:LeftToeBase
					{
						OFFSET 0.943001 -26.722000 15.023500
						CHANNELS 3 Xrotation Yrotation Zrotation
						End Site
						{
							OFFSET 0.000000 30.670183 0.000000
						}
					}
				}
				JOINT newVegas:Left_PantLeg
				{
					OFFSET 0.663870 -9.044666 -1.108900
					CHANNELS 3 Xrotation Yrotation Zrotation
					End Site
					{
						OFFSET 1.415995 20.635357 0.000000
					}
				}
			}
		}
		JOINT newVegas:RightUpLeg
		{
			OFFSET -18.735201 -5.666702 -4.541200
			CHANNELS 3 Xrotation Yrotation Zrotation
			JOINT newVegas:RightLeg
			{
				OFFSET 0.018946 -31.938133 0.493100
				CHANNELS 3 Xrotation Yrotation Zrotation
				JOINT newVegas:RightFoot
				{
					OFFSET -0.018946 -31.938126 -4.336299
					CHANNELS 3 Xrotation Yrotation Zrotation
					JOINT newVegas:RightToeBase
					{
						OFFSET -0.943001 -26.722004 15.023500
						CHANNELS 3 Xrotation Yrotation Zrotation
						End Site
						{
							OFFSET 0.000000 30.670187 0.000000
						}
					}
				}
				JOINT newVegas:Right_PantLeg
				{
					OFFSET -0.661674 -9.044716 -1.108900
					CHANNELS 3 Xrotation Yrotation Zrotation
					End Site
					{
						OFFSET -1.415958 20.635269 0.000000
					}
				}
			}
		}
	}
	JOINT newVegas:Spine
	{
		OFFSET 0.000000 10.199997 -0.299500
		CHANNELS 3 Xrotation Yrotation Zrotation
		JOINT newVegas:Spine1
		{
			OFFSET 0.000000 11.900002 -1.516600
			CHANNELS 3 Xrotation Yrotation Zrotation
			JOINT newVegas:Spine2
			{
				OFFSET 0.000000 13.600006 -2.842500
				CHANNELS 3 Xrotation Yrotation Zrotation
				JOINT newVegas:Neck
				{
					OFFSET 0.000000 9.624100 -2.890100
					CHANNELS 3 Xrotation Yrotation Zrotation
					JOINT newVegas:Head
					{
						OFFSET 0.000000 14.068802 -1.351900
						CHANNELS 3 Xrotation Yrotation Zrotation
						JOINT newVegas:Hair_Back
						{
							OFFSET 0.000000 3.231903 -17.524799
							CHANNELS 3 Xrotation Yrotation Zrotation
							End Site
							{
								OFFSET 0.000000 19.849884 0.000000
							}
						}
						JOINT newVegas:Hair_Front
						{
							OFFSET 0.000000 31.260406 4.573800
							CHANNELS 3 Xrotation Yrotation Zrotation
							JOINT newVegas:Hair_Front1
							{
								OFFSET 0.000000 2.284103 11.993300
								CHANNELS 3 Xrotation Yrotation Zrotation
								JOINT newVegas:Hair_Front2
								{
									OFFSET 0.000000 2.284103 11.993300
									CHANNELS 3 Xrotation Yrotation Zrotation
									End Site
									{
										OFFSET 0.000000 12.208862 0.000000
									}
								}
							}
						}
						JOINT newVegas:Jowel
						{
							OFFSET 0.000000 -7.458206 6.864100
							CHANNELS 3 Xrotation Yrotation Zrotation
							End Site
							{
								OFFSET 0.000000 19.849884 0.000000
							}
						}
					}
				}
				JOINT newVegas:LeftShoulder
				{
					OFFSET 15.263000 10.923401 -0.547700
					CHANNELS 3 Xrotation Yrotation Zrotation
					JOINT newVegas:LeftArm
					{
						OFFSET 25.438599 -2.830597 -13.032500
						CHANNELS 3 Xrotation Yrotation Zrotation
						JOINT newVegas:LeftForeArm
						{
							OFFSET 29.960503 0.000000 0.000000
							CHANNELS 3 Xrotation Yrotation Zrotation
							JOINT newVegas:LeftHand
							{
								OFFSET 27.849251 0.000000 0.000000
								CHANNELS 3 Xrotation Yrotation Zrotation
								JOINT newVegas:LeftHandThumb1
								{
									OFFSET 4.487587 -3.305161 6.305391
									CHANNELS 3 Xrotation Yrotation Zrotation
									JOINT newVegas:LeftHandThumb2
									{
										OFFSET 5.480453 -3.164139 3.164143
										CHANNELS 3 Xrotation Yrotation Zrotation
										JOINT newVegas:LeftHandThumb3
										{
											OFFSET 5.159721 -2.978973 2.978967
											CHANNELS 3 Xrotation Yrotation Zrotation
											End Site
											{
												OFFSET 2.494507 5.926697 1.738678
											}
										}
									}
								}
								JOINT newVegas:LeftHandIndex1
								{
									OFFSET 18.578728 -0.527832 5.208049
									CHANNELS 3 Xrotation Yrotation Zrotation
									JOINT newVegas:LeftHandIndex2
									{
										OFFSET 3.192009 0.000000 0.000000
										CHANNELS 3 Xrotation Yrotation Zrotation
										JOINT newVegas:LeftHandIndex3
										{
											OFFSET 3.835129 0.000000 0.000000
											CHANNELS 3 Xrotation Yrotation Zrotation
											End Site
											{
												OFFSET -0.034599 3.816971 0.371180
											}
										}
									}
								}
								JOINT newVegas:LeftHandMiddle1
								{
									OFFSET 18.476105 0.000000 0.000000
									CHANNELS 3 Xrotation Yrotation Zrotation
									JOINT newVegas:LeftHandMiddle2
									{
										OFFSET 3.324875 0.000000 0.000000
										CHANNELS 3 Xrotation Yrotation Zrotation
										JOINT newVegas:LeftHandMiddle3
										{
											OFFSET 4.596550 0.000000 0.000000
											CHANNELS 3 Xrotation Yrotation Zrotation
											End Site
											{
												OFFSET 0.057701 4.578827 0.399218
											}
										}
									}
								}
								JOINT newVegas:LeftHandRing1
								{
									OFFSET 17.732719 0.121887 -4.201567
									CHANNELS 3 Xrotation Yrotation Zrotation
									JOINT newVegas:LeftHandRing2
									{
										OFFSET 2.733170 0.000000 0.000000
										CHANNELS 3 Xrotation Yrotation Zrotation
										JOINT newVegas:LeftHandRing3
										{
											OFFSET 3.178268 0.000000 0.000000
											CHANNELS 3 Xrotation Yrotation Zrotation
											End Site
											{
												OFFSET 0.119102 3.170624 0.185394
											}
										}
									}
								}
								JOINT newVegas:LeftHandPinky1
								{
									OFFSET 15.989624 -0.606689 -7.535461
									CHANNELS 3 Xrotation Yrotation Zrotation
									JOINT newVegas:LeftHandPinky2
									{
										OFFSET 2.538986 0.000000 0.000000
										CHANNELS 3 Xrotation Yrotation Zrotation
										JOINT newVegas:LeftHandPinky3
										{
											OFFSET 2.593102 0.000000 0.000000
											CHANNELS 3 Xrotation Yrotation Zrotation
											End Site
											{
												OFFSET -0.150902 2.584198 0.152708
											}
										}
									}
								}
							}
							JOINT newVegas:Left_Sleeve
							{
								OFFSET 0.267448 -0.649796 0.577675
								CHANNELS 3 Xrotation Yrotation Zrotation
								End Site
								{
									OFFSET 0.000000 15.991241 0.000000
								}
							}
							JOINT newVegas:Left_CapeC
							{
								OFFSET 15.715958 -8.608795 -6.935905
								CHANNELS 3 Xrotation Yrotation Zrotation
								JOINT newVegas:Left_CapeC1
								{
									OFFSET 0.000000 -8.688499 0.000000
									CHANNELS 3 Xrotation Yrotation Zrotation
									End Site
									{
										OFFSET 0.000000 8.688499 0.000000
									}
								}
							}
						}
						JOINT newVegas:Left_CapeB
						{
							OFFSET 26.118385 -8.608795 -7.079235
							CHANNELS 3 Xrotation Yrotation Zrotation
							JOINT newVegas:Left_CapeB1
							{
								OFFSET 0.000000 -8.688499 0.000000
								CHANNELS 3 Xrotation Yrotation Zrotation
								End Site
								{
									OFFSET 0.000000 8.688499 0.000000
								}
							}
						}
						JOINT newVegas:Left_CapeA
						{
							OFFSET 5.115639 -8.608795 -10.395809
							CHANNELS 3 Xrotation Yrotation Zrotation
							JOINT newVegas:Left_CapeA1
							{
								OFFSET 0.000000 -8.688499 0.000000
								CHANNELS 3 Xrotation Yrotation Zrotation
								End Site
								{
									OFFSET 0.000000 8.688499 0.000000
								}
							}
						}
					}
				}
				JOINT newVegas:RightShoulder
				{
					OFFSET -15.263000 10.923401 -0.547700
					CHANNELS 3 Xrotation Yrotation Zrotation
					JOINT newVegas:RightArm
					{
						OFFSET -25.438599 -2.830597 -13.032500
						CHANNELS 3 Xrotation Yrotation Zrotation
						JOINT newVegas:RightForeArm
						{
							OFFSET -29.960503 0.000000 0.000000
							CHANNELS 3 Xrotation Yrotation Zrotation
							JOINT newVegas:RightHand
							{
								OFFSET -27.849251 0.000000 0.000000
								CHANNELS 3 Xrotation Yrotation Zrotation
								JOINT newVegas:RightHandThumb1
								{
									OFFSET -4.487587 -3.305161 6.305391
									CHANNELS 3 Xrotation Yrotation Zrotation
									JOINT newVegas:RightHandThumb2
									{
										OFFSET -5.480453 -3.164139 3.164143
										CHANNELS 3 Xrotation Yrotation Zrotation
										JOINT newVegas:RightHandThumb3
										{
											OFFSET -5.159721 -2.978973 2.978967
											CHANNELS 3 Xrotation Yrotation Zrotation
											End Site
											{
												OFFSET -2.494507 5.926697 1.738678
											}
										}
									}
								}
								JOINT newVegas:RightHandIndex1
								{
									OFFSET -18.578728 -0.527832 5.208049
									CHANNELS 3 Xrotation Yrotation Zrotation
									JOINT newVegas:RightHandIndex2
									{
										OFFSET -3.192009 0.000000 0.000000
										CHANNELS 3 Xrotation Yrotation Zrotation
										JOINT newVegas:RightHandIndex3
										{
											OFFSET -3.835129 0.000000 0.000000
											CHANNELS 3 Xrotation Yrotation Zrotation
											End Site
											{
												OFFSET 0.034599 3.816971 0.371180
											}
										}
									}
								}
								JOINT newVegas:RightHandMiddle1
								{
									OFFSET -18.476105 0.000000 0.000000
									CHANNELS 3 Xrotation Yrotation Zrotation
									JOINT newVegas:RightHandMiddle2
									{
										OFFSET -3.324875 0.000000 0.000000
										CHANNELS 3 Xrotation Yrotation Zrotation
										JOINT newVegas:RightHandMiddle3
										{
											OFFSET -4.596550 0.000000 0.000000
											CHANNELS 3 Xrotation Yrotation Zrotation
											End Site
											{
												OFFSET -0.057701 4.578827 0.399218
											}
										}
									}
								}
								JOINT newVegas:RightHandRing1
								{
									OFFSET -17.732719 0.121887 -4.201567
									CHANNELS 3 Xrotation Yrotation Zrotation
									JOINT newVegas:RightHandRing2
									{
										OFFSET -2.733170 0.000000 0.000000
										CHANNELS 3 Xrotation Yrotation Zrotation
										JOINT newVegas:RightHandRing3
										{
											OFFSET -3.178268 0.000000 0.000000
											CHANNELS 3 Xrotation Yrotation Zrotation
											End Site
											{
												OFFSET -0.119102 3.170624 0.185394
											}
										}
									}
								}
								JOINT newVegas:RightHandPinky1
								{
									OFFSET -15.989624 -0.606689 -7.535461
									CHANNELS 3 Xrotation Yrotation Zrotation
									JOINT newVegas:RightHandPinky2
									{
										OFFSET -2.538986 0.000000 0.000000
										CHANNELS 3 Xrotation Yrotation Zrotation
										JOINT newVegas:RightHandPinky3
										{
											OFFSET -2.593102 0.000000 0.000000
											CHANNELS 3 Xrotation Yrotation Zrotation
											End Site
											{
												OFFSET 0.150902 2.584198 0.152708
											}
										}
									}
								}
							}
							JOINT newVegas:Right_CapeC
							{
								OFFSET -15.715958 -8.608795 -6.935905
								CHANNELS 3 Xrotation Yrotation Zrotation
								JOINT newVegas:Right_CapeC1
								{
									OFFSET 0.000000 -8.688499 0.000000
									CHANNELS 3 Xrotation Yrotation Zrotation
									End Site
									{
										OFFSET 0.000000 8.688499 0.000000
									}
								}
							}
							JOINT newVegas:Right_Sleeve
							{
								OFFSET -0.267448 -0.649994 0.577675
								CHANNELS 3 Xrotation Yrotation Zrotation
								End Site
								{
									OFFSET 0.000000 15.991302 0.000000
								}
							}
						}
						JOINT newVegas:Right_CapeA
						{
							OFFSET -5.115540 -8.608795 -10.395824
							CHANNELS 3 Xrotation Yrotation Zrotation
							JOINT newVegas:Right_CapeA1
							{
								OFFSET 0.000000 -8.688499 0.000000
								CHANNELS 3 Xrotation Yrotation Zrotation
								End Site
								{
									OFFSET 0.000000 8.688499 0.000000
								}
							}
						}
						JOINT newVegas:Right_CapeB
						{
							OFFSET -26.118187 -8.608795 -7.079266
							CHANNELS 3 Xrotation Yrotation Zrotation
							JOINT newVegas:Right_CapeB1
							{
								OFFSET 0.000000 -8.688499 0.000000
								CHANNELS 3 Xrotation Yrotation Zrotation
								End Site
								{
									OFFSET 0.000000 8.688499 0.000000
								}
							}
						}
					}
				}
				JOINT newVegas:Left_Collar
				{
					OFFSET 18.625099 8.655502 8.828100
					CHANNELS 3 Xrotation Yrotation Zrotation
					JOINT newVegas:Left_Collar1
					{
						OFFSET 14.783401 10.540405 -1.259500
						CHANNELS 3 Xrotation Yrotation Zrotation
						End Site
						{
							OFFSET 0.000000 18.199875 0.000000
						}
					}
				}
				JOINT newVegas:Collar_Back
				{
					OFFSET 0.000000 15.630707 -20.132601
					CHANNELS 3 Xrotation Yrotation Zrotation
					End Site
					{
						OFFSET 0.000000 22.523010 0.000000
					}
				}
				JOINT newVegas:Left_Peck
				{
					OFFSET 17.239599 -5.132599 25.482599
					CHANNELS 3 Xrotation Yrotation Zrotation
					End Site
					{
						OFFSET 0.000000 22.523010 0.000000
					}
				}
				JOINT newVegas:Right_Peck
				{
					OFFSET -17.239599 -5.132202 25.482599
					CHANNELS 3 Xrotation Yrotation Zrotation
					End Site
					{
						OFFSET 0.000000 22.523010 0.000000
					}
				}
				JOINT newVegas:Right_Collar
				{
					OFFSET -18.625099 8.655792 8.828100
					CHANNELS 3 Xrotation Yrotation Zrotation
					JOINT newVegas:Right_Collar1
					{
						OFFSET -14.783401 10.539993 -1.259500
						CHANNELS 3 Xrotation Yrotation Zrotation
						End Site
						{
							OFFSET 0.000000 18.199631 0.000000
						}
					}
				}
			}
		}
		JOINT newVegas:Belly
		{
			OFFSET 0.000000 -6.540398 9.014299
			CHANNELS 3 Xrotation Yrotation Zrotation
			End Site
			{
				OFFSET 0.000000 11.566666 0.000000
			}
		}
	}
	JOINT newVegas:ElvisFacialAnim_Joint
	{
		OFFSET 1.000000 -95.330101 -8.825800
		CHANNELS 3 Xrotation Yrotation Zrotation
		End Site
		{
			OFFSET 0.000000 35.315800 0.000000
		}
	}
}
MOTION
Frames: 4
Frame Time: 0.033333
-1.263235 93.829552 3.542877 -9.058189 -5.135940 7.530841 -0.000000 0.000001 -0.000000 13.803700 14.334233 -13.847101 2.577129 0.171461 -0.010501 -6.408226 -1.076201 4.658178 0.000000 -0.000000 0.000000 0.000000 0.000000 0.000002 -10.733346 -11.757395 -26.875329 35.644234 1.830725 0.530830 -15.603084 -10.933104 10.816394 0.000000 -0.000002 -0.000000 -0.000002 0.000000 -0.000000 2.389049 1.107324 -4.221886 4.665951 1.722197 -2.801028 4.684881 1.684158 -2.791892 -0.559063 -0.089923 -1.006840 -0.559070 -0.089923 -1.006837 0.000000 0.000000 0.000000 -0.559200 -0.089927 -1.006839 -0.558976 -0.089916 -1.006840 -0.000000 -0.000000 -0.000001 0.000000 0.000000 -0.000000 4.034708 -13.464689 -7.420043 5.772110 3.721055 -60.112912 11.500212 -25.077868 -5.817088 -8.204175 -3.557916 7.163532 -21.992174 17.035878 -2.008539 5.703905 22.366216 5.520022 0.000000 -0.000002 -0.000003 -2.899169 12.800593 -7.221982 2.738381 6.809545 -29.838416 0.000002 -0.000002 0.000000 -8.984135 7.070374 -9.541627 4.275447 7.169706 -39.702401 0.000000 0.000001 0.000001 -16.256894 8.648374 -21.626573 4.108062 6.938145 -36.756721 -0.000000 -0.000002 -0.000003 -21.808951 10.568867 -31.865086 1.910784 2.504659 -24.353752 -0.000001 0.000000 0.000001 0.000000 0.000000 -0.000000 0.000000 0.000000 -0.000000 -0.000001 0.000000 0.000000 -0.000000 0.000001 -0.000000 0.000000 0.000000 0.000000 -0.000000 0.000001 -0.000000 -0.000000 -0.000000 -0.000000 3.919290 12.466693 7.900338 -3.939771 -11.622601 68.565168 15.857367 12.603414 4.140686 -8.305449 0.914350 -6.259105 -21.991973 -17.035475 2.009238 5.703624 -22.367056 -5.520834 0.000000 -0.000002 -0.000001 -2.899139 -12.801047 7.221826 2.738668 -6.813213 29.837815 -0.000001 0.000000 0.000002 -8.983044 -7.076425 9.538923 4.275414 -7.169930 39.704081 -0.000000 0.000000 -0.000001 -16.256629 -8.649604 21.626360 4.109555 -6.928335 36.756301 -0.000001 0.000003 -0.000002 -21.812226 -10.569655 31.865530 1.911599 -2.505994 24.353721 -0.000001 0.000002 -0.000000 0.000000 0.000000 0.000000 -0.000001 -0.000000 -0.000001 0.000000 0.000000 0.000001 0.000000 0.000001 -0.000000 0.000000 0.000001 0.000000 0.000000 0.000001 -0.000000 0.000000 0.000001 0.000000 0.000000 -0.000000 -0.000000 0.000000 -0.000000 -0.000000 0.000000 -0.000000 -0.000000 0.000000 -0.000000 -0.000000 0.000000 -0.000000 -0.000000 0.000000 -0.000000 -0.000000 0.000000 -0.000000 -0.000000 0.000001 0.000000 0.000000 -0.000000 0.000001 -0.000000 
-1.301121 93.769714 3.554546 -9.401717 -5.191236 7.759135 -0.000000 0.000000 0.000000 14.282708 14.140146 -14.107541 2.463434 0.166897 -0.011680 -6.418225 -0.952376 4.649574 -0.000000 -0.000000 -0.000000 0.000000 0.000001 0.000001 -10.646704 -11.444849 -27.177816 36.359546 1.845798 0.535289 -16.020052 -11.059978 10.819537 0.000000 -0.000002 0.000000 0.000001 0.000002 -0.000000 2.395812 1.101562 -4.197085 4.680372 1.719350 -2.817803 4.699162 1.679153 -2.809075 -0.403963 -0.058012 -1.061789 -0.403963 -0.058012 -1.061786 0.000000 0.000000 0.000000 -0.403889 -0.058008 -1.061791 -0.403963 -0.058016 -1.061786 -0.000000 0.000000 0.000001 0.000000 0.000000 0.000000 4.023814 -13.628876 -7.263263 5.485112 3.779583 -60.506173 11.227039 -24.443280 -5.809974 -8.223000 -3.374538 6.858131 -21.992142 17.035880 -2.008518 5.703897 22.366214 5.520017 -0.000000 0.000001 -0.000003 -2.899154 12.800598 -7.221986 2.738382 6.809538 -29.838440 0.000002 -0.000002 0.000003 -8.984130 7.070372 -9.541623 4.275451 7.169696 -39.702407 0.000001 0.000001 0.000003 -16.256873 8.648368 -21.626575 4.108058 6.938157 -36.756738 0.000000 -0.000001 -0.000002 -21.808924 10.568864 -31.865110 1.910787 2.504662 -24.353728 0.000000 -0.000002 -0.000002 0.000001 -0.000001 0.000001 0.000001 -0.000001 0.000001 -0.000000 -0.000001 0.000001 -0.000001 0.000001 -0.000000 -0.000001 0.000001 -0.000001 -0.000001 0.000001 -0.000000 -0.000001 0.000000 -0.000000 3.899684 12.598631 7.905826 -2.204343 -12.142270 68.460482 17.326489 15.731491 2.976004 -8.442369 -0.632609 -6.645244 -22.109256 -16.755234 2.082330 5.629876 -22.137627 -5.482721 0.000001 -0.000004 0.000001 -2.905657 -12.749595 6.874686 2.710116 -6.763422 29.479472 -0.000000 -0.000001 -0.000001 -8.992934 -7.016894 9.145798 4.248504 -7.137612 39.439660 0.000001 0.000000 -0.000001 -16.273255 -8.607834 21.339049 4.081835 -6.891299 36.469703 0.000000 0.000002 -0.000000 -21.834822 -10.533870 31.611755 1.888078 -2.455575 24.016912 0.000000 -0.000002 0.000002 -0.000000 0.000000 0.000001 -0.000000 0.000000 0.000001 -0.000000 0.000000 0.000001 0.000000 0.000000 0.000001 0.000000 0.000000 0.000001 0.000000 0.000000 0.000001 0.000000 -0.000000 0.000001 0.000000 0.000000 -0.000000 0.000000 0.000000 -0.000000 0.000000 0.000000 -0.000000 0.000000 0.000000 -0.000000 0.000000 0.000000 -0.000000 0.000000 0.000000 -0.000000 0.000000 0.000000 -0.000000 0.000000 -0.000000 -0.000000 -0.000000 0.000000 0.000000 
-1.377460 93.652000 3.622713 -9.891087 -5.395759 8.070406 -0.000000 -0.000000 0.000000 14.812595 13.740114 -14.442179 2.650843 0.136867 -0.031292 -6.659479 -0.473508 4.665038 0.000000 -0.000001 -0.000000 0.000001 0.000002 -0.000000 -10.477012 -10.774632 -27.536102 37.489771 1.883764 0.543673 -16.692820 -11.360246 10.842089 -0.000000 -0.000003 0.000000 0.000002 0.000000 -0.000001 2.481783 1.112501 -4.216555 4.850105 1.709131 -2.858304 4.868867 1.666917 -2.849110 -0.069511 -0.005414 -1.104394 -0.069477 -0.005415 -1.104395 0.000000 -0.000000 -0.000000 -0.069525 -0.005411 -1.104394 -0.069457 -0.005415 -1.104396 0.000000 0.000000 -0.000000 0.000000 -0.000000 -0.000000 3.996444 -14.071102 -6.850384 5.247303 3.973726 -61.174473 10.193013 -23.743742 -6.030074 -8.235261 -3.226946 6.861599 -21.992147 17.035887 -2.008520 5.703888 22.366214 5.520020 0.000000 -0.000002 -0.000003 -2.899152 12.800596 -7.221994 2.738360 6.809567 -29.838371 -0.000001 0.000002 -0.000001 -8.984117 7.070388 -9.541604 4.275425 7.169691 -39.702404 0.000001 -0.000001 -0.000003 -16.256866 8.648364 -21.626575 4.108053 6.938148 -36.756731 0.000001 -0.000002 -0.000003 -21.808931 10.568861 -31.865100 1.910795 2.504663 -24.353733 -0.000000 -0.000002 -0.000001 0.000000 -0.000000 0.000000 0.000000 -0.000000 0.000000 -0.000001 -0.000000 0.000000 -0.000000 -0.000001 -0.000000 -0.000000 -0.000001 -0.000002 -0.000000 -0.000001 -0.000000 -0.000001 -0.000001 -0.000000 3.855507 12.867626 7.983839 -0.893619 -13.302024 67.652867 21.405437 18.526798 0.623286 -8.676740 -2.347503 -8.035675 -22.428571 -15.995318 2.283180 5.426060 -21.504540 -5.376168 0.000000 -0.000002 -0.000001 -2.921865 -12.608664 5.925347 2.633814 -6.626612 28.501464 0.000000 -0.000003 0.000000 -9.017618 -6.855000 8.079118 4.174116 -7.046652 38.701136 -0.000000 -0.000000 0.000004 -16.318259 -8.491565 20.542316 4.005918 -6.787839 35.674703 -0.000000 0.000002 0.000004 -21.896649 -10.432795 30.900442 1.826291 -2.316808 23.094041 0.000002 -0.000000 0.000003 0.000001 -0.000000 -0.000001 0.000001 0.000000 -0.000000 0.000001 -0.000000 -0.000000 -0.000000 0.000000 0.000003 -0.000000 0.000000 0.000003 -0.000000 0.000000 0.000003 -0.000000 0.000000 0.000003 -0.000000 -0.000000 -0.000000 -0.000000 -0.000000 -0.000000 -0.000000 -0.000000 -0.000000 -0.000000 -0.000000 -0.000000 -0.000000 -0.000000 -0.000000 -0.000000 -0.000000 -0.000000 -0.000000 -0.000000 -0.000000 -0.000001 -0.000000 0.000000 -0.000000 -0.000000 0.000000 
-1.488896 93.510468 3.692045 -10.573096 -5.749389 8.396667 -0.000000 -0.000000 0.000000 15.422280 13.065665 -14.811637 2.995167 0.097977 -0.056768 -6.995505 0.411895 4.716257 -0.000000 0.000000 -0.000000 0.000000 0.000000 -0.000001 -10.158175 -9.881227 -27.882611 38.838180 1.922939 0.552085 -17.481043 -11.725240 10.848680 0.000000 -0.000001 0.000000 -0.000001 0.000000 -0.000000 2.713520 1.124024 -4.288377 5.308027 1.653526 -2.924697 5.326657 1.607829 -2.914724 0.364990 0.058792 -1.138866 0.364993 0.058792 -1.138868 0.000000 -0.000000 -0.000000 0.364920 0.058789 -1.138866 0.365061 0.058796 -1.138868 -0.000000 0.000000 0.000000 0.000000 -0.000000 -0.000000 3.961775 -15.064296 -5.690418 4.723988 4.542035 -62.797155 8.919888 -22.913396 -6.067950 -8.236506 -3.168274 6.942809 -21.992152 17.035880 -2.008548 5.703889 22.366214 5.520019 -0.000001 -0.000000 -0.000003 -2.899153 12.800580 -7.222006 2.738366 6.809552 -29.838392 -0.000001 -0.000002 -0.000001 -8.984135 7.070385 -9.541643 4.275442 7.169692 -39.702377 -0.000001 0.000000 0.000001 -16.256878 8.648375 -21.626583 4.108053 6.938144 -36.756738 0.000001 -0.000000 -0.000003 -21.808929 10.568861 -31.865110 1.910776 2.504670 -24.353707 -0.000000 -0.000005 -0.000007 -0.000002 -0.000001 0.000000 -0.000002 -0.000001 0.000000 -0.000003 -0.000000 0.000000 0.000000 0.000000 0.000000 0.000001 0.000000 0.000000 0.000000 0.000000 0.000000 0.000001 -0.000000 0.000000 3.775186 13.638103 7.671165 -1.048990 -14.815652 66.424819 26.771505 19.402199 -2.325599 -8.702481 -4.047829 -8.157129 -22.902032 -14.877443 2.585887 5.118058 -20.550854 -5.211822 0.000001 -0.000002 -0.000001 -2.941536 -12.398315 4.512449 2.524815 -6.420967 27.049108 -0.000001 0.000001 0.000000 -9.048462 -6.615651 6.508033 4.062531 -6.905575 37.570828 -0.000000 -0.000000 0.000002 -16.383356 -8.314012 19.334232 3.893504 -6.628804 34.468519 0.000000 -0.000001 -0.000001 -21.987530 -10.275307 29.806987 1.741379 -2.108039 21.716491 0.000000 0.000001 0.000001 0.000000 0.000000 -0.000002 0.000000 0.000001 -0.000002 0.000000 0.000000 -0.000002 -0.000000 0.000000 -0.000001 -0.000000 0.000000 -0.000001 -0.000000 0.000000 -0.000001 -0.000000 -0.000001 0.000001 -0.000000 0.000000 0.000000 -0.000000 0.000000 0.000000 -0.000000 0.000000 0.000000 -0.000000 0.000000 0.000000 -0.000000 0.000000 0.000000 -0.000000 0.000000 0.000000 -0.000000 0.000000 0.000000 0.000001 -0.000000 0.000000 -0.000000 -0.000000 0.000000 
